<?xml version="1.0" encoding="utf-8"?>
<!-- Generator: Adobe Illustrator 19.2.1, SVG Export Plug-In . SVG Version: 6.00 Build 0)  -->
<svg version="1.1" id="Layer_1" xmlns="http://www.w3.org/2000/svg" xmlns:xlink="http://www.w3.org/1999/xlink" x="0px" y="0px"
	 viewBox="0 0 73.3 81.1" style="enable-background:new 0 0 73.3 81.1;" xml:space="preserve">
<style type="text/css">
	.st0{fill:#234563;}
	.st1{fill:#808080;}
	.st2{fill:url(#SVGID_1_);}
	.st3{fill:url(#SVGID_2_);}
	.st4{fill:url(#SVGID_3_);}
	.st5{fill:url(#SVGID_4_);}
	.st6{fill:url(#SVGID_5_);}
	.st7{fill:url(#SVGID_6_);}
	.st8{fill:url(#SVGID_7_);}
	.st9{fill:url(#SVGID_8_);}
</style>
<g>
	<polygon class="st0" points="61.9,31 61.9,31 61.9,31 	"/>
	<g>
		<path class="st1" d="M26.8,6c-2.9,0.2-7,0.7-8.7,1c-0.1,0-0.3,0-0.4,0c-0.1,0-0.2-0.1-0.4-0.1l-0.2-0.1c0,0,0,0.2,0,0.4
			c0,0.6,0.6,1.1,1.2,1c1.8-0.2,5.6-0.7,8.4-0.9l0.1,0L26.9,6L26.8,6z"/>
		<path class="st1" d="M7.5,38.8c1.1-0.2,2.2-0.3,2.6-0.4c0.7-0.2,1.2-0.5,1.4-1.2c0.1-0.3,0.1-0.6,0-1c-0.3-0.9-0.8-2.7-1.1-4.1
			c-0.2-0.7-0.8-1.1-1.5-1l-0.1,0l0,0.1c0.4,1.3,1,3.7,1.4,5c0.1,0.3,0.2,0.7,0.1,0.9c-0.1,0.4-0.4,0.7-1.2,0.9
			c-0.4,0.1-1,0.2-1.6,0.2c-0.7,0.1-2.4,0.4-2.4,0.4c0.1,0.3,0.3,0.3,0.6,0.2C6.3,39,7,38.9,7.5,38.8z"/>
		<path class="st1" d="M14.5,3.2c0,6,1.1,20.1,4.2,32.6c0.1,0.4,0,0.8-0.2,1.2c-0.2,0.3-0.6,0.5-1,0.5c-1.1,0.1-2.8,0.2-3.7,0.3
			l-0.1,0l0,0.1c0.1,0.3,0.3,0.2,0.6,0.2c0.8-0.1,2.4-0.2,4-0.3c0.3,0,0.6-0.1,0.9-0.3c0.5-0.4,0.7-1.1,0.6-1.7
			c-3-11.8-4.2-26.2-4.2-32.7c0,0,0,0,0,0c0-0.6-0.6-1-1.1-0.9l-0.4,0.1l0.1,0.1C14.4,2.6,14.5,2.9,14.5,3.2z"/>
		<path class="st1" d="M25.8,9.1c0-0.4-0.4-0.7-0.8-0.7l-0.3,0l0.1,0.1c0.1,0.2,0.2,0.4,0.2,0.6c0.2,4.4,1.1,15.1,1.7,21.1l0,0.1
			c0.5,0,0.9-0.4,0.8-0.9C27.1,26,26,13,25.8,9.1C25.8,9.2,25.8,9.1,25.8,9.1z"/>
		<path class="st1" d="M22.1,37.5c2.2-0.1,10.1-0.3,12.3-0.4c0.4,0,0.7-0.1,1-0.3c0.4-0.3,0.6-0.8,0.6-1.3c0,0,0.1-3,0-4.3
			c0-0.3-0.3-0.5-0.6-0.5h-0.1l0.1,0.2c0.1,0.2,0.1,0.4,0.1,0.6l0.1,4c0,0.3-0.1,0.6-0.2,0.8c-0.3,0.4-0.7,0.6-1.1,0.6
			c-2.5,0-9.8,0.2-12.3,0.4l-0.1,0c-0.1,0-0.2,0-0.3,0l-0.2,0l0,0.1C21.6,37.5,21.8,37.5,22.1,37.5z"/>
		<path class="st1" d="M34.3,28.5c-1.6,0-3.6,0.1-4.8,0.1l-0.1,0c-0.2,0-0.3,0-0.5-0.1l-0.2-0.1l0,0.3c0,0.4,0.3,0.7,0.7,0.7
			c1.4-0.1,4.2-0.1,5.1-0.1c0.5,0,1-0.3,1.3-0.7c0.2-0.3,0.3-0.6,0.3-1l0-2.1c-0.1-3.3-0.1-8.6-0.1-12.8c0-2.2,0-4.2,0-5.4
			c0-0.1,0-0.2,0.1-0.2C36.2,7.1,36.2,7,36.3,7l0.3,0c3.8,0.1,6.6,0.2,8,0.3c0.7,0,1.2-0.5,1.2-1.1l0-0.4l-0.2,0.1
			C45.6,5.9,45.4,6,45.2,6l-0.1,0c-2.3-0.2-6.5-0.3-8.9-0.3l-0.3,0c-0.1,0-0.3,0.1-0.4,0.2c-0.1,0.1-0.2,0.2-0.2,0.4
			c0,3.6,0.2,13.9,0.3,18.8l0,1.9c0,0.3-0.1,0.6-0.2,0.8C35.2,28.3,34.8,28.5,34.3,28.5z"/>
		<path class="st1" d="M47.4,6c0,0.8,0.6,1.5,1.5,1.6C51.5,7.9,55,8.2,58,8.9c0.1,0,0.2,0.1,0.2,0.2c-0.1,4.7-1.3,13.6-2.6,19.4
			c-0.1,0.4,0,0.9,0.3,1.3c0.3,0.4,0.7,0.6,1.1,0.7c0.6,0.1,2,0.3,3.2,0.4c0.2,0,0.6,0.1,1,0.1c0.6,0.1,1.1-0.3,1.2-0.9l-0.2,0.1
			c-0.1,0-0.3,0.1-0.4,0.1c-0.1,0-0.1,0-0.2,0c-1.2-0.2-2.5-0.3-3.5-0.5c-0.4,0-0.7-0.3-1-0.6c-0.2-0.3-0.3-0.7-0.2-1.1
			c1.3-5.8,2.3-15.2,2.5-19.9c0-0.2-0.2-0.4-0.4-0.5c-3.1-0.6-6.9-1.1-9.4-1.4c-0.7-0.1-1.3-0.7-1.3-1.4c0-0.9,0-2.2,0-3.4
			c0-0.3,0.1-0.6,0.2-0.8l0.1-0.1l-0.2,0c-0.4,0-0.8,0.2-0.9,0.7c0,0.1,0,0.2,0,0.3c0,0.5,0,1.4,0,2.2C47.4,4.7,47.4,5.6,47.4,6z"/>
		<path class="st1" d="M67.7,38.8c-0.8-0.1-1.8-0.3-2.8-0.4c-0.3,0-0.6-0.2-0.8-0.3c-0.4-0.4-0.6-1-0.4-1.5
			c0.9-2.6,2.5-9.2,3.2-12.7c0-0.3-0.1-0.5-0.4-0.6c-0.5-0.1-1.3-0.3-1.9-0.4l-0.1,0l-0.1,0.3C64.3,23.6,64.6,24,65,24c0,0,0,0,0,0
			l0.2,0c0.1,0,0.2,0.2,0.2,0.3c-0.6,3.3-2.2,9.3-3.1,12.1c-0.2,0.6,0,1.3,0.5,1.7c0.2,0.2,0.5,0.3,0.9,0.4c1,0.1,2.1,0.3,2.9,0.4
			l0.1,0c0.4,0.1,0.7,0.1,0.9,0.1c0.3,0,0.6,0,0.7-0.3l0-0.1l-0.2,0C67.9,38.8,67.8,38.8,67.7,38.8z"/>
		<path class="st1" d="M67.9,9.9l-0.4-0.1c-0.5-0.2-1.3-0.4-1.6-0.5l-0.1,0l0,0.4c0,0.5,0.3,1,0.8,1.2c0,0,0,0,0,0
			c0.2,0,0.3,0.2,0.2,0.3c0,0.8-0.2,2.4-0.3,3.6c-0.1,0.8,0.5,1.5,1.2,1.7l0-0.1c0.1-1.6,0.4-4.6,0.4-6C68.3,10.2,68.2,10,67.9,9.9z
			"/>
		<path class="st1" d="M24.6,39L24.6,39c0.7,0,1.3,0.5,1.4,1.2c0.1,0.8,0.3,1.8,0.5,2.8l0.1,0.8c0.1,0.3,0,0.6-0.1,0.8l-0.1,0.2h0.2
			c0.5,0,1-0.5,0.9-1c0,0,0,0,0,0l-0.2-1.1c-0.2-1-0.3-1.9-0.4-2.7c-0.1-0.8-0.8-1.3-1.6-1.3l0,0c-3.2,0.1-14.2,0.8-18.8,1.5
			c-0.1,0-0.1,0-0.2,0c-0.4,0.1-0.7,0.4-0.6,0.8l0.1-0.1c0.2-0.2,0.5-0.3,0.8-0.4C11.4,39.7,21.6,39.1,24.6,39z"/>
		<path class="st1" d="M41.2,46c-0.2,2-0.9,7.4-1.1,9.4c0,0.1-0.1,0.2-0.3,0.2c-0.4,0-1.2,0-1.9,0c-0.5,0-1,0.4-1,1l0.3,0l0.4,0
			c0.8,0,1.7,0,2.5,0c0.2,0,0.4-0.2,0.5-0.4c0.4-2.6,1.1-8.6,1.3-10.8l0-0.1C41.6,45.3,41.2,45.6,41.2,46z"/>
		<path class="st1" d="M35.8,71.3c-0.2,0.6-0.5,1.4-0.7,2.1c0,0.1-0.1,0.1-0.2,0.1c0,0-0.1,0-0.1,0c-0.8-0.6-1.7-1.6-2.3-2.2
			c-0.4-0.4-0.9-0.6-1.5-0.6l-0.7,0l0.2,0.2c1,1.1,2.9,3,4.2,4c0.1,0.1,0.2,0.1,0.3,0.1c0.2,0,0.3-0.1,0.4-0.3
			c0.4-1,0.9-2.7,1.2-3.8l0-0.1C36.2,70.7,35.9,71,35.8,71.3z"/>
		<path class="st1" d="M20,63.2c4.6,0.5,13,0.9,16.9,0.9c0.2,0,0.4,0,0.6,0c0.2,0,0.4-0.2,0.5-0.4c0-0.3,0.2-1.2,0.2-1.5l0-0.1h-0.6
			l0,0.1c0,0.2,0,0.2,0,0.4l0,0.2c0,0.1-0.1,0.2-0.3,0.2c-3,0-11.3-0.4-16.5-0.9c-1-0.1-1.8,0.5-2.1,1.5c0,0.2-0.1,0.4-0.1,0.4
			l0.1-0.1C19,63.4,19.5,63.1,20,63.2z"/>
		<path class="st1" d="M53,62.1c-1.7,0.1-5.8,0.4-7.5,0.6c-0.5,0-0.9,0.4-1.1,0.8l-0.2,0.4l0.2,0c2.2-0.1,6.4-0.5,9-0.8
			c0.5,0,0.9,0.2,1.2,0.6l0.1,0.1c0,0-0.1-0.3-0.1-0.7C54.4,62.5,53.8,62,53,62.1z"/>
		<path class="st1" d="M35.5,38.7c3.9,0,9.8,0.1,13.6,0.3c0.3,0,0.5,0.1,0.7,0.3l0.1,0.1l0-0.1c0.1-0.4-0.2-0.7-0.7-0.7
			c-0.1,0-0.2,0-0.3,0c-3.8-0.2-9.7-0.3-13.6-0.3c-2.4,0-4.4,0-5.6,0.1c-0.1,0-0.1,0-0.2,0c-0.5,0.1-0.7,0.3-0.7,0.8l0,0l0.2-0.1
			c0.2-0.2,0.5-0.2,0.7-0.3C31.1,38.7,33.1,38.7,35.5,38.7z"/>
		<path class="st1" d="M67,40.2c-0.2-0.1-0.3-0.1-0.5-0.2c-2.8-0.3-10-1.1-12.8-1.2l-0.1,0c-0.8,0-1.4,0.5-1.6,1.3
			c-1.3,5.8-4.9,16.3-6.2,20c0,0,0,0.1,0,0.1c-0.1,0.7,0.5,1.3,1.2,1.3l0.1,0L47,61.2c-0.2-0.4-0.2-0.8-0.1-1.1
			c0.8-2.2,4.7-13.3,6.1-19.6c0.1-0.6,0.7-1.1,1.3-1.1l0.1,0c2.8,0.2,9.4,0.8,12,1c0.4,0,0.7,0.2,0.9,0.5l0.1,0.2l0-0.1
			C67.5,40.6,67.4,40.4,67,40.2z"/>
		<path class="st1" d="M58.5,46.9c-1,2.2-3,6.6-3.7,7.8c0,0.1-0.1,0.1-0.2,0.1c-0.5,0-0.9,0.3-1.1,0.8l-0.1,0.3l0.2,0
			c0.2,0,0.5,0,0.8,0c0.4,0,0.7,0,0.9-0.1c0.2,0,0.3-0.1,0.4-0.2c1-1.7,3.5-7.1,4.6-9.7l0.1-0.1C59.6,45.7,58.8,46.1,58.5,46.9z"/>
		<path class="st1" d="M29.2,52.3L29.2,52.3c-0.2-1-0.6-3.1-0.8-3.9c-0.1-0.7-0.8-1.3-1.5-1.3c-1,0-2.5,0-3.9,0l-1.5,0
			c-1.4,0-3.1,0-4.6-0.1c0-0.1-0.1-0.3-0.2-0.6c-0.2-0.6-0.8-1-1.5-1H15l0.1,0.2c0.1,0.2,0.2,0.4,0.2,0.6c0.2,0.6,0.5,1.2,0.6,1.6
			l0,0.1l0.1,0c1.9,0,3.8,0.1,5.6,0.1c1.6,0,3.3,0,4.7,0.1c0.7,0,1.2,0.5,1.3,1.1c0.2,0.8,0.5,2.3,0.7,3.3l0,0
			c0.1,0.3,0,0.6-0.1,0.8l-0.1,0.2h0.1C28.8,53.3,29.3,52.9,29.2,52.3C29.2,52.3,29.2,52.3,29.2,52.3z"/>
		<path class="st1" d="M29.9,61.5c0.6,0,1-0.5,1-1c0-0.1,0-0.1,0-0.2c0,0-0.7-3.1-0.8-3.7c-0.2-0.7-0.8-1.2-1.5-1.2
			c-2.3-0.1-5.8-0.3-8.1-0.4c-0.1-0.1-0.1-0.3-0.2-0.5c-0.3-0.6-0.9-1-1.5-1l-0.1,0l0.1,0.2c0,0,0,0.1,0.1,0.2
			c0.2,0.5,0.6,1.5,0.9,2l0,0.1l0.1,0c2.1,0.2,5.7,0.4,8.4,0.5c0.6,0,1.2,0.5,1.3,1.1c0.1,0.6,0.6,2.9,0.7,2.9
			c0.1,0.4,0.1,0.8-0.1,1L29.9,61.5z"/>
		<path class="st1" d="M60.5,37.8L60.5,37.8l-0.2,0c-0.1,0-0.2,0-0.3,0c-6-0.6-15.4-0.9-21-1c-0.3,0-0.6-0.1-0.8-0.3
			c-0.4-0.3-0.6-0.6-0.6-1.2c0-2.8,0.2-13.9,0.4-20.9l0.1-5.8c0-0.2,0.1-0.4,0.1-0.6L38.4,8h0c-0.4,0-0.7,0.3-0.7,0.6
			c0,0,0,0.1,0,0.1l-0.2,6.1c-0.1,4.5-0.2,10.6-0.3,15c0,2.7-0.1,4.7-0.1,5.7c0,0.5,0.2,1,0.7,1.4c0.3,0.2,0.6,0.3,1,0.3
			c4.8,0,17.8,0.7,20.9,0.9C60,38.2,60.3,38.1,60.5,37.8z"/>
		<path class="st1" d="M54.4,26.5c-2.1-0.2-6.7-0.6-8.8-0.7l-0.1,0c0,0.5,0.3,0.9,0.8,0.9c1.9,0.1,6.2,0.5,7.8,0.6
			c0.5,0,0.9-0.3,0.9-0.7l0-0.1l-0.2,0c-0.1,0-0.2,0-0.3,0C54.5,26.5,54.5,26.5,54.4,26.5z"/>
		<path class="st1" d="M55.8,15.7c-2.2-0.3-6.8-0.9-9.4-1.1l-0.1,0c0,0.6,0.4,1.1,1,1.2c2,0.2,6.3,0.7,7.9,0.9
			c0.7,0.1,1.3-0.4,1.3-1l0-0.1l-0.2,0.1C56.2,15.7,56,15.7,55.8,15.7z"/>
		<path class="st1" d="M7.2,24.5C8,24.4,8.5,23.7,8.4,23c-0.3-2.4-1-7.5-1.1-9.4c0-0.1,0.1-0.2,0.2-0.2c0,0,0.1,0,0.2,0
			c0.6-0.1,0.9-0.7,0.9-1.2l0-0.2l-0.1,0C7.9,12,7,12.2,6.5,12.3l-0.4,0.1c-0.2,0.1-0.3,0.2-0.3,0.4c0.2,2.5,1,8.8,1.5,11.6
			L7.2,24.5z"/>
	</g>
	<g>
		<linearGradient id="SVGID_1_" gradientUnits="userSpaceOnUse" x1="5.3896" y1="6.1368" x2="74.8223" y2="23.561">
			<stop  offset="0" style="stop-color:#FFFFFF"/>
			<stop  offset="1" style="stop-color:#FFFFFF;stop-opacity:0.7"/>
		</linearGradient>
		<path class="st2" d="M18.1,6.4c1.7-0.3,5.7-0.8,8.8-1l0,0c0.3,0,0.5,0.2,0.5,0.5c0.1,4,1,17.6,1.3,21.4c0,0.4,0.3,0.7,0.7,0.7l0,0
			c1.3-0.1,3.6-0.1,4.9-0.1c0.2,0,0.4-0.1,0.5-0.2c0.1-0.1,0.2-0.3,0.2-0.5l0-2.2c-0.1-5.4-0.3-16.6-0.3-19.4c0-0.3,0.2-0.5,0.5-0.5
			c0.3,0,0.6,0,1,0c2.4,0,6.7,0.1,8.9,0.3c0.4,0,0.8-0.3,0.8-0.7c0-1,0-2.7,0.1-3.5c0-0.4-0.3-0.7-0.7-0.7C42.7,0.1,39.9,0,36.9,0
			c-8.8,0-16.2,0.9-19.1,1.5c-0.3,0.1-0.6,0.4-0.6,0.7c0,1.6,0,2.7,0,3.4C17.2,6.1,17.6,6.4,18.1,6.4z"/>
		<linearGradient id="SVGID_2_" gradientUnits="userSpaceOnUse" x1="-4.079" y1="43.8678" x2="65.3537" y2="61.2919">
			<stop  offset="0" style="stop-color:#FFFFFF"/>
			<stop  offset="1" style="stop-color:#FFFFFF;stop-opacity:0.7"/>
		</linearGradient>
		<path class="st3" d="M28.8,61.5c0.2,0,0.4-0.1,0.6-0.3c0.1-0.2,0.2-0.4,0.1-0.6l-0.2-0.7c-0.2-0.8-0.4-1.7-0.6-2.3
			c-0.1-0.3-0.4-0.6-0.7-0.6c-2.7-0.1-6.3-0.3-8.5-0.5c-0.2,0-0.3-0.1-0.4-0.3c-0.5-0.8-1-1.9-1.3-2.5c-0.1-0.2-0.1-0.3,0-0.5
			c0.1-0.2,0.3-0.2,0.5-0.2h0c2.4,0.1,6.5,0.2,8.6,0.3c0.2,0,0.4-0.1,0.6-0.3c0.1-0.2,0.2-0.4,0.1-0.6l0-0.1c-0.2-1-0.5-2.4-0.7-3.2
			c-0.1-0.3-0.4-0.6-0.7-0.6c-1.4,0-3,0-4.7-0.1c-1.9,0-4,0-5.9-0.1c-0.2,0-0.4-0.1-0.5-0.3c-0.3-0.6-0.7-1.6-1-2.4
			c-0.1-0.2,0-0.3,0-0.5c0.1-0.1,0.2-0.2,0.4-0.2c0.7,0,1.5,0,2.3,0c2.7,0,5.5-0.1,8.4-0.1c0.2,0,0.4-0.1,0.6-0.3
			c0.1-0.2,0.2-0.4,0.2-0.6l-0.1-0.8c-0.2-1-0.4-2.1-0.5-2.9c-0.1-0.4-0.4-0.6-0.7-0.6h0c-3,0.1-13.2,0.7-17.9,1.3
			c-0.2,0-0.4,0.2-0.5,0.3c-0.1,0.2-0.1,0.4-0.1,0.6c1.6,4.4,6.5,14.2,9.8,18.4c0.1,0.1,0.3,0.2,0.5,0.3
			C19,60.9,26.4,61.4,28.8,61.5L28.8,61.5z"/>
		<linearGradient id="SVGID_3_" gradientUnits="userSpaceOnUse" x1="2.5433" y1="17.4789" x2="71.976" y2="34.9031">
			<stop  offset="0" style="stop-color:#FFFFFF"/>
			<stop  offset="1" style="stop-color:#FFFFFF;stop-opacity:0.7"/>
		</linearGradient>
		<path class="st4" d="M22,36.5C22,36.5,22,36.5,22,36.5c2.6-0.2,10.1-0.3,12.6-0.4c0.2,0,0.4-0.1,0.5-0.2c0.1-0.1,0.2-0.3,0.2-0.5
			l-0.1-4c0-0.4-0.3-0.7-0.7-0.7h0c-1.5,0-5.9,0.1-8,0.2c-0.3,0-0.5-0.2-0.5-0.5c-0.6-5.9-1.5-16.6-1.7-21.1c0-0.4-0.4-0.7-0.8-0.7
			c-2,0.2-4.2,0.4-5.4,0.6c-0.4,0.1-0.6,0.4-0.6,0.7c0.2,6.5,2.5,20.8,3.8,26C21.3,36.3,21.6,36.5,22,36.5z"/>
		<linearGradient id="SVGID_4_" gradientUnits="userSpaceOnUse" x1="3.9664" y1="11.8081" x2="73.3991" y2="29.2322">
			<stop  offset="0" style="stop-color:#FFFFFF"/>
			<stop  offset="1" style="stop-color:#FFFFFF;stop-opacity:0.7"/>
		</linearGradient>
		<path class="st5" d="M60.8,36.6c0.3-0.9,0.8-2.6,1-3.6c0.1-0.2,0-0.4-0.1-0.6c-0.1-0.2-0.3-0.3-0.5-0.3
			c-4.3-0.6-12.6-1.2-16.2-1.3c-0.1,0-0.3-0.1-0.4-0.2c-0.1-0.1-0.1-0.2-0.1-0.4c0.1-1.2,0.3-3.4,0.4-4.7c0-0.3,0.2-0.5,0.5-0.5l0,0
			c1.8,0.1,6.7,0.5,9,0.7c0.4,0,0.7-0.2,0.8-0.6c0.2-1.1,0.5-3,0.6-4.1c0-0.2,0-0.4-0.1-0.6c-0.1-0.2-0.3-0.3-0.5-0.3
			c-2.6-0.3-7.6-0.7-9.4-0.9c-0.3,0-0.5-0.3-0.5-0.5c0.1-1.2,0.2-3.2,0.3-4.5c0-0.3,0.3-0.5,0.6-0.5c2.5,0.2,7.2,0.7,9.6,1.1
			c0,0,0.1,0,0.1,0h0c0.4,0,0.7-0.3,0.7-0.7c0.1-0.7,0.3-2.6,0.4-4.2c0-0.4-0.2-0.7-0.6-0.8C50.7,8.5,45,8.1,39.6,8
			c-0.4,0-0.7,0.3-0.7,0.7l-0.1,4.1c-0.2,7-0.5,19.6-0.6,22.6c0,0.2,0.1,0.4,0.2,0.5c0.1,0.1,0.3,0.2,0.5,0.2c5.5,0,15.1,0.4,21.2,1
			c0,0,0,0,0.1,0C60.5,37.1,60.7,36.9,60.8,36.6z"/>
		<linearGradient id="SVGID_5_" gradientUnits="userSpaceOnUse" x1="5.4891" y1="5.7401" x2="74.9218" y2="23.1643">
			<stop  offset="0" style="stop-color:#FFFFFF"/>
			<stop  offset="1" style="stop-color:#FFFFFF;stop-opacity:0.7"/>
		</linearGradient>
		<path class="st6" d="M73.3,7.6c0-0.2-0.1-0.5-0.3-0.6c-7-4.5-21.6-6.1-23.2-6.3c-0.4,0-0.8,0.3-0.8,0.7c0,1.2,0,2.6,0,3.5
			c0,0.4,0.3,0.7,0.7,0.7c2.8,0.3,6.9,0.8,10,1.5C59.8,7.2,60,7.4,60,7.7c-0.1,4.8-1.1,14.5-2.4,20.4c0,0.2,0,0.4,0.1,0.6
			c0.1,0.2,0.3,0.3,0.5,0.3c0.8,0.1,2.2,0.3,3.6,0.5c0.4,0.1,0.7-0.2,0.8-0.6c0.3-1.3,0.9-4.2,1.3-6.2c0-0.3,0.3-0.5,0.6-0.4
			c1,0.2,2,0.4,2.8,0.6c0.3,0.1,0.4,0.3,0.4,0.6c-0.5,3.2-2.3,10.5-3.3,13.4c-0.1,0.2,0,0.4,0.1,0.6c0.1,0.2,0.3,0.3,0.5,0.3
			c1.1,0.1,2.1,0.3,2.9,0.4c0,0,0.1,0,0.1,0c0.3,0,0.6-0.2,0.7-0.5c1.4-4.2,2.5-8.7,3.3-13.1c0.1-0.5,0-1-0.1-1.4
			c-0.1-0.3-0.2-0.6-0.4-1c-0.1-0.2-0.2-0.5-0.3-0.7c-0.1-0.3-0.1-0.7,0.2-1c0.2-0.2,0.3-0.4,0.5-0.6c0.3-0.3,0.5-0.7,0.7-1
			c0.1-0.2,0.2-0.5,0.3-0.7C73.2,13.2,73.3,9.2,73.3,7.6z M68.5,16.7c0,0.3-0.3,0.5-0.6,0.4c-0.8-0.2-1.7-0.4-2.7-0.6
			c-0.3-0.1-0.4-0.3-0.4-0.6c0.2-1.6,0.5-4.9,0.5-6.8c0-0.3,0.2-0.5,0.5-0.5c0,0,0.1,0,0.1,0c0.8,0.2,1.9,0.5,2.6,0.8
			C68.9,9.5,69,9.7,69,10C68.9,11.3,68.7,14.8,68.5,16.7z"/>
		<linearGradient id="SVGID_6_" gradientUnits="userSpaceOnUse" x1="-5.196" y1="48.3189" x2="64.2366" y2="65.7431">
			<stop  offset="0" style="stop-color:#FFFFFF"/>
			<stop  offset="1" style="stop-color:#FFFFFF;stop-opacity:0.7"/>
		</linearGradient>
		<path class="st7" d="M53.6,63.8c-2.7,0.4-7.2,0.7-9.5,0.8c-0.2,0-0.3-0.1-0.4-0.2c-0.1-0.1-0.1-0.3-0.1-0.5
			c1.6-4.7,4.9-17.2,6.1-23.4c0-0.2,0-0.4-0.1-0.6c-0.1-0.2-0.3-0.3-0.5-0.3c-3.8-0.2-9.7-0.3-13.5-0.3c-2.4,0-4.4,0-5.6,0.1
			c-0.2,0-0.4,0.1-0.5,0.3c-0.1,0.2-0.2,0.4-0.2,0.6c0.6,4.6,2.5,17.8,3,20.8c0.1,0.3,0.4,0.6,0.7,0.6c1.3,0,3.3,0.1,4.8,0.1
			c0.3,0,0.5,0,0.7,0c0.1,0,0.3,0.1,0.4,0.2c0.1,0.1,0.1,0.3,0.1,0.4c-0.1,0.6-0.2,1.5-0.3,2.1c0,0.2-0.2,0.4-0.5,0.4
			c-0.4,0-0.8,0-1.3,0c-4.1,0-11.6-0.3-16.8-0.9c-0.3,0-0.6,0.1-0.7,0.4c-0.1,0.3-0.1,0.5,0.1,0.8c3.7,4.7,10,11.3,16.7,16
			c0.1,0.1,0.3,0.1,0.4,0.1c0.3,0,0.5-0.1,0.6-0.4c1.4-2.4,3.9-7.9,4.9-10.3c0.1-0.2,0.3-0.3,0.5-0.3c2.8-0.1,5.5-0.4,6.9-0.5l0.2,0
			c0.2,0,0.4-0.1,0.5-0.2l0.3-0.4c1.2-1.3,2.3-2.6,3.7-4.4c0.1-0.2,0.1-0.4,0.1-0.6C54,63.9,53.8,63.7,53.6,63.8z M37.2,70.8
			c-0.5,1.6-1,3.4-1.6,4.8c-0.1,0.2-0.3,0.3-0.5,0.3c-0.1,0-0.2,0-0.3-0.1c-1.9-1.5-4-3.6-5.3-5.2c-0.1-0.1-0.1-0.2,0-0.3
			c0.1-0.1,0.2-0.2,0.3-0.2V70l0,0l0,0.1c2.8,0.2,6.1,0.2,7,0.2c0.1,0,0.3,0.1,0.3,0.2C37.2,70.5,37.3,70.7,37.2,70.8z M41.2,56.8
			c0,0.2-0.2,0.4-0.5,0.4c-0.8,0-2.1,0-3.1,0c-0.3,0-0.6,0-0.8,0c-0.3,0-0.5-0.2-0.5-0.5l0-2.5c-0.1-3.1-0.1-7.3-0.2-9
			c0-0.1,0-0.3,0.1-0.4c0.1-0.1,0.2-0.2,0.4-0.2v-0.1l0,0.1c1.2,0,2.7,0,4,0l1.4,0c0.1,0,0.3,0.1,0.4,0.2c0.1,0.1,0.1,0.3,0.1,0.4
			C42.4,47.5,41.6,54.4,41.2,56.8z"/>
		<linearGradient id="SVGID_7_" gradientUnits="userSpaceOnUse" x1="-2.1529" y1="36.1926" x2="67.2798" y2="53.6168">
			<stop  offset="0" style="stop-color:#FFFFFF"/>
			<stop  offset="1" style="stop-color:#FFFFFF;stop-opacity:0.7"/>
		</linearGradient>
		<path class="st8" d="M66.3,40.9c-2.6-0.3-9.1-0.9-11.9-1c-0.4,0-0.7,0.2-0.8,0.6c-1.4,6.4-5.4,17.7-6.2,19.9
			c-0.1,0.2,0,0.5,0.1,0.7c0.1,0.2,0.4,0.3,0.6,0.3c0,0,0,0,0.1,0c2.8-0.2,7.2-0.6,8.5-0.7c0.2,0,0.4-0.1,0.5-0.3
			c2.1-2.7,7.8-13,9.8-18.4c0.1-0.2,0.1-0.4-0.1-0.6C66.8,41,66.6,40.9,66.3,40.9z M61.1,45.8c-1,2.5-4,8.9-5,10.4
			c-0.1,0.1-0.2,0.2-0.4,0.2c-0.5,0-1.4,0.1-2.1,0.1l-0.1,0c-0.2,0-0.3-0.1-0.4-0.2c-0.1-0.1-0.1-0.3,0-0.5c1.2-2.7,3.2-7.9,4-10.6
			c0.1-0.2,0.3-0.4,0.5-0.4l0,0c0.9,0,2.2,0.1,3.2,0.2c0.2,0,0.3,0.1,0.4,0.2C61.1,45.5,61.1,45.6,61.1,45.8z"/>
		<linearGradient id="SVGID_8_" gradientUnits="userSpaceOnUse" x1="2.2805" y1="18.526" x2="71.7132" y2="35.9502">
			<stop  offset="0" style="stop-color:#FFFFFF"/>
			<stop  offset="1" style="stop-color:#FFFFFF;stop-opacity:0.7"/>
		</linearGradient>
		<path class="st9" d="M18.1,35.9C15,23.4,13.9,9.2,13.9,3.1c0-0.2-0.1-0.4-0.2-0.5c-0.2-0.2-0.4-0.3-0.7-0.2
			C7.7,3.6,2.9,5.5,0.6,6.8C0.2,7,0,7.5,0,7.9c0.1,10.6,1.8,21.4,4.7,29.7c0.1,0.3,0.4,0.5,0.7,0.5c0,0,0.1,0,0.1,0
			c1-0.2,2.6-0.4,3.5-0.5c0.2,0,0.4-0.1,0.5-0.3c0.1-0.2,0.1-0.4,0.1-0.6c-0.4-1.4-1.2-4-1.5-5.4c0-0.1,0-0.3,0.1-0.4
			c0.1-0.1,0.2-0.2,0.3-0.2c0.8-0.1,1.9-0.3,2.7-0.4c0.3,0,0.5,0.1,0.6,0.4c0.4,1.5,1.2,4.5,1.6,5.9c0.1,0.3,0.4,0.6,0.8,0.5
			c0.9-0.1,2.3-0.2,3.4-0.3c0.2,0,0.4-0.1,0.5-0.3C18.2,36.3,18.2,36.1,18.1,35.9z M9.3,24.5c-0.5,0.1-1,0.2-1.6,0.3
			c-0.6,0.1-1.2-0.3-1.3-0.9c-0.5-2.8-1.2-8.3-1.3-10.9c0-0.5,0.3-1,0.8-1.1c0.7-0.2,1.6-0.4,2.3-0.6c0,0,0.1,0,0.1,0
			c0.3,0,0.5,0.2,0.5,0.5c0.2,2.9,0.9,8.8,1.4,11.4C10.3,23.8,9.9,24.4,9.3,24.5z"/>
	</g>
</g>
</svg>
