<?xml version="1.0" encoding="utf-8"?>
<!-- Generator: Adobe Illustrator 19.2.1, SVG Export Plug-In . SVG Version: 6.00 Build 0)  -->
<svg version="1.1" xmlns="http://www.w3.org/2000/svg" xlink="http://www.w3.org/1999/xlink" x="0px" y="0px" width="600px" height="188px" viewBox="0 0 446 134.001" style="enable-background:new 0 0 446 134.001;" xml:space="preserve">
					<clipPath id="cc"><path style="stroke-linecap: round; stroke-linejoin: round;" fill="none" stroke="#000000" d="M443.816,27.258c-0.337,0.88-0.912,1.549-1.73,2.011 	c-0.818,0.461-1.541,0.904-2.163,1.329l-6.669,4.635c-4.132,2.622-8.271,4.94-12.418,6.954c-1.87,0.763-3.814,1.264-5.832,1.497 	c-2.021,0.233-3.951,0.144-5.791-0.267c-1.843-0.411-3.574-1.173-5.195-2.29c-1.624-1.114-2.932-2.695-3.928-4.745 	c-0.345-0.748-0.664-1.5-0.96-2.26c-0.295-0.757-0.414-1.498-0.35-2.224c-0.976,0.697-1.91,1.461-2.81,2.293 	c-0.897,0.835-1.689,1.57-2.371,2.209c-0.45,0.291-1.011,0.78-1.684,1.467c-0.312,0.317-0.643,0.52-0.995,0.619 	c-0.215,0.266-0.457,0.531-0.774,0.789c-0.743,0.599-1.547,1.135-2.413,1.605c-0.868,0.472-1.743,0.895-2.629,1.266 	c-0.887,0.374-1.608,0.666-2.174,0.874c-1.851,0.864-3.737,1.657-5.664,2.38c-1.926,0.727-3.88,1.176-5.859,1.349 	c-1.964,0.275-3.629-0.018-5.001-0.876c-1.138,1.438-2.32,2.76-3.549,3.961c-1.231,1.205-2.452,2.327-3.662,3.373 	c-0.938,0.892-2.138,1.73-3.598,2.52c-1.461,0.787-2.886,1.239-4.274,1.351c-1.39,0.113-2.561-0.224-3.515-1.008 	c-0.956-0.783-1.309-2.369-1.061-4.76c0.319-4.131,1.31-8.442,2.97-12.935c-1.268,0.753-2.508,1.498-3.727,2.239 	c-1.218,0.744-2.461,1.49-3.727,2.24c-1.442,0.887-2.778,1.805-4.007,2.751c-1.23,0.948-2.449,1.945-3.659,2.99 	c-0.545,0.309-1.142,0.626-1.781,0.951c-0.099,0.05-0.197,0.084-0.296,0.11c-0.575,0.605-1.214,1.2-1.985,1.777 	c-1.189,0.891-2.415,1.735-3.67,2.534c-1.259,0.801-2.062,1.336-2.412,1.606c-1.932,1.491-3.894,2.958-5.882,4.406 	c-1.989,1.449-4.113,2.595-6.369,3.432c-1.984,0.685-3.479,0.512-4.479-0.518c-1.006-1.03-1.678-2.451-2.025-4.27 	c-0.347-1.816-0.455-3.831-0.322-6.046c0.129-2.213,0.318-4.26,0.565-6.139c-2.068,1.312-4.099,2.54-6.095,3.685 	s-3.921,2.405-5.773,3.776c-1.599,1.121-3.18,2.339-4.741,3.654c-0.14,0.067-0.275,0.123-0.411,0.168 	c-0.242,0.29-0.557,0.557-0.991,0.787c-1.053,0.558-1.892,1.048-2.513,1.473l-9.618,5.808c-1.07,0.715-2.569,1.713-4.488,2.997 	c-1.921,1.283-3.873,2.396-5.857,3.332c-1.987,0.939-3.869,1.375-5.642,1.311c-1.776-0.066-3.074-1.193-3.893-3.379 	c-0.628-2.223-0.64-4.536-0.041-6.94c0.598-2.405,1.332-5.013,2.206-7.828c-3.713,3.723-7.669,7.157-11.854,10.319 	c-0.335,0.455-0.76,0.889-1.337,1.288c-0.713,0.493-1.429,0.959-2.149,1.403c-0.722,0.443-1.258,0.803-1.608,1.07 	c-1.502,1.104-3.008,2.18-4.519,3.23c-1.512,1.053-3.065,2.139-4.665,3.26c-1.07,0.715-2.223,1.547-3.452,2.492 	c-1.229,0.949-2.525,1.805-3.888,2.576c-1.364,0.768-2.781,1.395-4.249,1.881c-1.47,0.484-2.883,0.6-4.238,0.352 	c-1.785-0.373-2.937-1.143-3.463-2.316c-0.526-1.17-0.726-2.479-0.599-3.932l-3.485,3.111c-1.466,1.299-2.998,2.633-4.597,4.008 	c-1.603,1.375-3.355,2.344-5.259,2.912c-1.73,0.434-3.361,0.338-4.889-0.285c-1.53-0.623-2.521-1.857-2.973-3.707 	c-0.188-0.982-0.04-2.307,0.448-3.979c0.486-1.67,1.181-3.432,2.088-5.285c0.904-1.852,1.956-3.604,3.151-5.258 	c1.194-1.654,2.356-2.945,3.489-3.875c-0.643,0.328-1.652,0.979-3.026,1.953c-1.376,0.977-2.915,2.135-4.623,3.481 	c-1.707,1.344-3.507,2.73-5.399,4.16c-1.625,1.229-3.127,2.375-4.521,3.445c-0.348,0.68-0.852,1.221-1.537,1.607 	c-0.819,0.463-1.541,0.906-2.163,1.328l-6.668,4.635c-4.133,2.623-8.271,4.941-12.418,6.953c-1.871,0.764-3.814,1.266-5.833,1.498 	c-2.02,0.234-3.952,0.145-5.792-0.268c-1.841-0.41-3.572-1.172-5.195-2.289c-1.624-1.113-2.931-2.695-3.927-4.746 	c-0.346-0.746-0.664-1.498-0.96-2.258c-0.295-0.756-0.413-1.498-0.349-2.225c-0.976,0.697-1.912,1.461-2.81,2.295 	c-0.898,0.834-1.69,1.57-2.373,2.207c-0.449,0.291-1.01,0.781-1.683,1.467c-0.426,0.436-0.889,0.666-1.391,0.688 	c-0.181,0.182-0.366,0.361-0.567,0.527c-0.479,0.396-0.99,0.752-1.535,1.057c-0.545,0.309-0.955,0.541-1.228,0.693l-5.587,3.969 	c-0.958,0.795-2.151,1.785-3.585,2.977c-1.435,1.189-2.922,2.238-4.46,3.143c-1.541,0.904-3.088,1.506-4.641,1.803 	c-1.555,0.299-2.891-0.107-4.009-1.219c-0.619-0.592-1.056-1.297-1.311-2.113c-0.257-0.816-0.392-1.656-0.405-2.52 	c-0.014-0.861,0.02-1.734,0.104-2.617c0.082-0.879,0.146-1.73,0.191-2.555l0.238-5.084c-0.468,0.193-1.416,0.629-2.847,1.307 	c-1.432,0.682-3.006,1.264-4.727,1.744c-1.721,0.482-3.401,0.777-5.042,0.887c-1.641,0.113-2.953-0.297-3.936-1.23 	c-1.485,1.199-2.704,2.195-3.658,2.988c-0.958,0.793-1.929,1.643-2.914,2.541c-0.986,0.902-1.783,1.617-2.387,2.139 	c-0.156,0.088-0.318,0.195-0.485,0.314c-0.056,0.473-0.289,0.859-0.748,1.143c-0.628,0.936-1.541,1.693-2.737,2.277 	c-1.198,0.588-2.237,1.219-3.113,1.895c-2.458,1.896-4.887,3.811-7.287,5.744c-2.401,1.936-4.878,3.857-7.433,5.771 	c-4.039,3.111-8.15,6.238-12.333,9.383c-4.185,3.139-8.701,5.732-13.545,7.779c-2.143,0.92-4.475,1.619-7,2.102 	c-2.528,0.484-4.948,0.588-7.265,0.32c-2.317-0.271-4.478-1.029-6.477-2.273c-2-1.246-3.554-3.191-4.661-5.826 	c-0.938-2.266-1.526-4.693-1.771-7.295c-0.246-2.602-0.242-5.225,0.009-7.863c0.25-2.645,0.661-5.242,1.231-7.797 	c0.57-2.551,1.191-4.961,1.868-7.227c2.945-10.945,7.168-21.268,12.667-30.973c1.216-2.064,2.472-4.187,3.77-6.37 	c1.294-2.179,2.735-4.263,4.32-6.246c1.586-1.982,3.3-3.811,5.146-5.488c1.845-1.674,3.877-3.031,6.097-4.066 	c1.909-1.077,4.107-1.828,6.594-2.253c2.487-0.423,4.755-0.017,6.804,1.219c2.049,1.237,3.43,2.932,4.143,5.085 	c0.713,2.155,1.081,4.351,1.106,6.583c0.119,5.374-0.519,10.736-1.914,16.091c-1.394,5.359-2.923,10.539-4.587,15.535 	c-0.93,2.52-1.864,5.014-2.801,7.482c-0.94,2.471-2.095,4.855-3.469,7.152c-0.685,0.641-1.403,0.955-2.161,0.947 	c-0.756-0.008-1.4-0.215-1.931-0.623c-0.531-0.406-0.861-0.953-0.993-1.643c-0.131-0.688,0.134-1.398,0.8-2.139 	c1.662-1.844,3.121-3.953,4.38-6.332c1.257-2.381,2.366-4.881,3.325-7.508c0.958-2.625,1.767-5.246,2.425-7.867 	c0.657-2.619,1.209-5.141,1.652-7.569c0.6-2.658,0.938-5.371,1.016-8.134c0.076-2.763-0.236-5.451-0.937-8.065 	c-0.738-2.81-2.071-4.387-3.999-4.732c-1.931-0.342-4.11-0.028-6.542,0.945c-2.529,0.995-4.858,2.38-6.985,4.161 	c-2.129,1.781-4.083,3.811-5.863,6.083c-1.782,2.275-3.417,4.649-4.909,7.122c-1.491,2.476-2.828,4.843-4.006,7.103 	c-2.655,5.09-4.961,10.287-6.917,15.598c-1.958,5.312-3.402,10.805-4.333,16.479c-0.441,1.918-0.771,4.27-0.994,7.061 	c-0.221,2.791-0.13,5.521,0.28,8.191c0.409,2.672,1.28,4.996,2.617,6.982c1.334,1.98,3.39,3.115,6.163,3.4s5.525,0.064,8.257-0.662 	c2.731-0.729,5.435-1.727,8.113-3.002c2.677-1.273,5.272-2.715,7.787-4.314c2.513-1.6,4.844-3.115,6.988-4.541 	c2.319-1.564,4.602-3.195,6.844-4.896c2.244-1.699,4.504-3.43,6.789-5.189l6.875-5.133c0.429-0.387,0.967-0.873,1.611-1.453 	c0.645-0.58,1.333-1.193,2.065-1.844c0.617-0.549,1.229-1.02,1.84-1.42c0.063-0.064,0.117-0.133,0.193-0.191 	c1.834-1.469,3.644-2.936,5.429-4.398c1.785-1.459,3.714-3.1,5.783-4.922c-0.552-1.826-0.329-3.701,0.663-5.621 	c0.993-1.922,2.52-3.027,4.578-3.318c1.397-0.062,2.403,0.457,3.018,1.561c0.611,1.104,0.634,2.27,0.064,3.498 	c-0.554,1.328-1.386,2.504-2.499,3.531c0.754,0.264,1.618,0.303,2.591,0.115c2.078-0.191,4.144-0.969,6.201-2.33 	c2.056-1.361,3.856-2.746,5.398-4.162c1.637-0.924,2.79-0.939,3.464-0.051c0.673,0.891,0.704,2.105,0.092,3.645 	c-0.337,0.881-0.703,1.992-1.1,3.34c-0.398,1.352-0.692,2.703-0.886,4.064c-0.193,1.359-0.203,2.633-0.026,3.822 	c0.175,1.188,0.718,2.053,1.627,2.59c0.598,0.496,1.885,0.25,3.862-0.74c1.976-0.986,4.583-2.502,7.817-4.547 	c1.073-0.715,2.154-1.506,3.248-2.377c1.092-0.869,2.213-1.721,3.365-2.553c0.273-0.152,0.668-0.457,1.185-0.914 	c0.518-0.451,1.029-0.807,1.535-1.057c0.176-0.084,0.349-0.146,0.521-0.195c1.409-1.1,2.857-2.283,4.351-3.559 	c1.688-1.441,3.427-2.74,5.222-3.898c0.831-2.5,2.278-4.688,4.338-6.557c2.061-1.867,4.355-3.299,6.884-4.293 	c1.322-0.455,2.9-0.757,4.736-0.905c1.834-0.146,3.36,0.326,4.575,1.415c0.83,0.657,1.159,1.459,0.988,2.407 	c-0.172,0.949-0.596,1.896-1.271,2.84c-0.677,0.945-1.463,1.832-2.361,2.664c-0.898,0.836-1.563,1.443-1.992,1.832 	c-1.542,1.416-3.307,2.594-5.292,3.531c-1.988,0.941-4.067,1.516-6.241,1.727l-0.583,0.113c0.8,2.086,1.993,3.588,3.58,4.506 	c1.585,0.918,3.352,1.473,5.302,1.658c1.947,0.188,3.909,0.043,5.883-0.438c1.972-0.479,3.756-1.025,5.353-1.635 	c2.239-0.936,4.403-1.986,6.498-3.15c2.094-1.164,4.116-2.439,6.067-3.832c0.876-0.676,1.784-1.334,2.72-1.971 	c0.556-0.377,1.028-0.768,1.53-1.152c0.122-0.18,0.267-0.359,0.49-0.531c1.054-0.811,2.388-1.855,4.008-3.131 	c1.619-1.277,3.366-2.553,5.237-3.828c1.872-1.274,3.68-2.483,5.425-3.633c1.745-1.147,3.201-2.086,4.371-2.82 	c0.623-0.425,1.754-1.099,3.39-2.023c1.636-0.923,3.378-1.814,5.229-2.679c1.849-0.861,3.605-1.552,5.268-2.076 	c1.662-0.521,2.929-0.61,3.801-0.268c1.373,0.858,1.778,1.797,1.218,2.82c-0.56,1.023-1.356,1.736-2.387,2.136l-6.418,1.99 	c-1.286,0.654-2.338,1.339-3.157,2.055c-0.821,0.717-1.738,1.579-2.754,2.587c-0.412,0.488-1.106,1.461-2.086,2.92 	c-0.981,1.461-1.917,3.014-2.811,4.658c-0.894,1.646-1.556,3.199-1.982,4.652c-0.427,1.459-0.245,2.414,0.548,2.873 	c0.677,0.381,1.643,0.299,2.898-0.248c1.255-0.547,2.505-1.242,3.754-2.092c1.247-0.848,2.394-1.703,3.438-2.564 	c1.044-0.861,1.732-1.477,2.065-1.846c2.48-2.307,4.407-4.607,5.781-6.906c0.687-1.149,1.611-1.456,2.771-0.913 	c1.161,0.542,1.667,1.491,1.524,2.838c-0.065,0.725-0.291,1.379-0.683,1.961c-0.394,0.588-0.765,1.141-1.117,1.666 	c-0.354,0.525-0.601,1.209-0.742,2.049c-0.258,0.764-0.257,1.297,0.004,1.604c0.259,0.309,0.642,0.465,1.147,0.469 	c1.397-0.062,3.079-0.486,5.044-1.27c1.966-0.783,3.976-1.727,6.03-2.834c2.055-1.104,4.062-2.328,6.022-3.67 	c1.956-1.34,3.64-2.553,5.044-3.637c0.369-0.17,0.853-0.545,1.449-1.117c0.594-0.572,1.229-1.074,1.903-1.509 	c0.282-0.182,0.565-0.331,0.849-0.46c0.058-0.062,0.091-0.13,0.157-0.19c3.101-2.22,6.052-4.566,8.854-7.036 	c2.799-2.468,5.491-5.121,8.072-7.957l1.365-3.926c-1.438,0.377-3.004,0.88-4.697,1.509c-1.692,0.629-3.131,0.751-4.311,0.366 	c-0.872-0.342-1.271-0.979-1.195-1.91c0.073-0.929,0.549-1.479,1.424-1.645c1.768-0.237,3.52-0.545,5.26-0.931 	c1.74-0.382,3.466-0.839,5.177-1.372c1.913-4.74,4.015-9.698,6.3-14.868c2.284-5.17,5.119-9.706,8.506-13.612 	c0.682-0.638,1.39-1.282,2.122-1.933c0.73-0.648,1.526-1.105,2.382-1.372c0.971-0.185,1.774,0.07,2.412,0.761 	c0.635,0.694,0.892,1.509,0.769,2.448c-0.111,2.059-0.819,4.153-2.124,6.285c-1.306,2.134-2.399,4.047-3.284,5.743 	c-1.081,2.244-2.246,4.451-3.494,6.622c-1.247,2.173-2.528,4.301-3.842,6.384l8.205-3.707l13.585-7.177 	c0.622-0.424,1.286-0.78,1.986-1.067c0.701-0.287,1.417-0.092,2.15,0.581c0.732,0.676,1.033,1.458,0.902,2.348 	c-0.135,0.891-0.56,1.557-1.281,2c-4.17,2.427-8.599,4.544-13.287,6.357c-4.691,1.813-9.31,3.46-13.861,4.94l-1.957,0.832 	c-0.958,1.305-1.969,2.617-3.023,3.937c-1.058,1.324-2.162,2.654-3.316,3.993c-0.493,1.113-0.885,2.231-1.173,3.355 	c-0.29,1.124-0.573,2.273-0.852,3.445c-0.14,0.332-0.29,1.124-0.452,2.376c-0.165,1.253-0.3,2.526-0.405,3.818 	c-0.106,1.294-0.157,2.473-0.154,3.541c0.002,1.068,0.149,1.576,0.44,1.52c2.136,0.104,4.319-0.446,6.561-1.637 	c2.238-1.191,4.188-2.199,5.842-3.025c2.084-1.212,4.168-2.425,6.255-3.639c2.084-1.212,4.149-2.522,6.198-3.933 	c0.32-0.181,0.724-0.354,1.17-0.525c0.073-0.064,0.115-0.128,0.201-0.195l13.225-9.857c0.349-0.269,1.173-0.835,2.47-1.694 	c1.295-0.858,2.596-1.565,3.9-2.119c1.304-0.555,2.466-0.8,3.484-0.743c1.018,0.062,1.532,0.905,1.541,2.53 	c-0.027,0.921-0.271,1.884-0.732,2.888c-0.465,1.005-0.757,1.977-0.879,2.917c-0.339,1.389-0.599,3.068-0.776,5.033 	c-0.179,1.97,0.282,3.458,1.383,4.469c1.688-0.118,3.473-0.664,5.353-1.634c1.878-0.97,3.587-1.907,5.127-2.813 	c0.447-0.289,1.277-0.955,2.488-2.002c1.209-1.044,2.496-2.08,3.863-3.105c1.364-1.025,2.646-1.828,3.844-2.415 	c0.122-0.06,0.239-0.109,0.353-0.158c3.272-2.202,6.495-4.439,9.662-6.719c3.275-2.355,6.562-4.664,9.857-6.923 	c0.701-0.54,1.471-1.121,2.311-1.739c0.839-0.619,1.693-0.755,2.565-0.414c0.87,0.344,1.4,0.75,1.593,1.222 	c0.189,0.474,0.187,0.983-0.011,1.529c-0.198,0.548-0.469,1.108-0.812,1.682c-0.343,0.576-0.682,1.046-1.013,1.415 	c-0.864,1.287-1.597,2.596-2.195,3.931c-0.602,1.336-1.169,2.719-1.702,4.143c-0.277,0.664-0.494,1.368-0.654,2.109 	c-0.16,0.745-0.32,1.489-0.481,2.23c-0.306,2.095,0.066,3.117,1.115,3.07c1.049-0.048,2.312-0.543,3.794-1.49 	c1.481-0.944,2.905-2.056,4.273-3.336c1.365-1.276,2.216-2.104,2.549-2.472l1.115-1.282c-0.495-1.532-0.61-3.19-0.347-4.972 	c0.265-1.78,0.944-3.486,2.044-5.124c0.626-0.933,1.448-1.904,2.465-2.914c1.016-1.008,2.192-1.436,3.531-1.286 	c1.531,0.115,2.369,0.82,2.519,2.114c0.146,1.295,0.031,2.539-0.346,3.73c-0.517,1.525-1.195,2.976-2.039,4.359 	c-0.845,1.382-1.794,2.735-2.85,4.057c1.26,0.269,2.55,0.302,3.87,0.1c1.322-0.2,2.638-0.555,3.953-1.062 	c1.312-0.503,2.593-1.054,3.838-1.649c1.247-0.594,2.366-1.189,3.36-1.787c1.03-0.4,1.969-0.885,2.818-1.456 	c0.849-0.567,1.663-1.182,2.443-1.841c0.22-0.169,0.439-0.28,0.66-0.345c1.465-1.139,2.975-2.369,4.532-3.702 	c1.688-1.442,3.427-2.74,5.222-3.899c0.83-2.5,2.278-4.685,4.338-6.555c2.061-1.868,4.355-3.3,6.886-4.293 	c1.321-0.456,2.899-0.757,4.736-0.906c1.834-0.145,3.359,0.326,4.575,1.416c0.829,0.657,1.159,1.458,0.987,2.407 	c-0.172,0.949-0.596,1.896-1.269,2.839c-0.678,0.945-1.464,1.833-2.362,2.665c-0.897,0.835-1.563,1.444-1.991,1.832 	c-1.543,1.416-3.309,2.593-5.294,3.531c-1.987,0.94-4.067,1.517-6.241,1.728l-0.583,0.111c0.8,2.087,1.992,3.588,3.579,4.507 	c1.584,0.919,3.353,1.473,5.303,1.658c1.946,0.189,3.909,0.043,5.882-0.438c1.973-0.477,3.756-1.023,5.354-1.633 	c2.238-0.936,4.401-1.987,6.498-3.151c2.093-1.164,4.114-2.44,6.066-3.832c0.876-0.676,1.785-1.333,2.72-1.971 	c0.937-0.637,1.795-1.283,2.574-1.943c0.643-0.325,1.367-0.361,2.171-0.109C444.036,25.64,444.231,26.263,443.816,27.258z 	 M148.542,75.313c1.98-1.498,3.635-3.24,4.969-5.225c-1.455-0.23-2.818-0.121-4.092,0.322c-1.273,0.449-2.414,1.074-3.418,1.877 	c-1.006,0.803-1.855,1.756-2.552,2.855s-1.146,2.178-1.346,3.234C144.416,77.834,146.563,76.813,148.542,75.313z M276.812,23.612 	c0.354-0.778,0.676-1.603,0.963-2.474c0.287-0.869,0.597-1.742,0.933-2.622c-0.783,1.169-1.495,2.324-2.132,3.461 	c-0.639,1.141-1.193,2.06-1.664,2.761c-1.374,2.3-2.695,4.614-3.963,6.941c-1.268,2.331-2.365,4.754-3.293,7.272 	C271.259,34.09,274.31,28.977,276.812,23.612z M409.697,25.384c1.98-1.497,3.636-3.238,4.97-5.225 	c-1.456-0.229-2.818-0.122-4.093,0.325c-1.273,0.448-2.414,1.072-3.418,1.875c-1.006,0.803-1.855,1.754-2.552,2.854 	c-0.697,1.101-1.146,2.18-1.347,3.234C405.572,27.905,407.718,26.884,409.697,25.384z M335.807,3.479 	c-2.931-0.05-5.911,0.29-8.942,1.023c-3.034,0.732-5.606,2.167-7.716,4.299c-0.859,0.774-1.391,1.692-1.59,2.747 	c-0.201,1.057-0.635,1.953-1.299,2.691c-0.822,0.973-1.842,1.168-3.06,0.585c-1.221-0.58-1.748-1.499-1.584-2.751 	c0.242-1.368,0.784-2.617,1.626-3.747c0.844-1.126,1.839-2.106,2.989-2.938c1.149-0.83,2.397-1.55,3.741-2.166 	c1.342-0.611,2.626-1.136,3.854-1.576c3.46-0.865,6.936-1.376,10.431-1.537c0.582-0.111,1.259-0.138,2.024-0.082 	c0.767,0.059,1.183,0.537,1.257,1.439c-0.004,0.511-0.169,0.974-0.489,1.392C336.725,3.279,336.311,3.484,335.807,3.479z"></path></clipPath>
					<g clip-path="url(#cc)"><path id="creative_word" stroke-width="5" style="fill-rule: evenodd; clip-rule: evenodd; fill: none; stroke: rgb(255, 255, 255); stroke-miterlimit: 5; stroke-dasharray: 1090.15px; stroke-dashoffset: 0px;" d="M39.458,99.811c7.812-13.136,10.786-21.562,12.452-30.184 	c2.761-14.284,4.164-23.097-3.223-26.502c-12.104-5.58-25.333,14.523-29.375,21.938C15.271,72.475,2.917,97.33,3.947,115.501 	c0.88,15.504,10.324,18.085,22.411,13.959c9.734-3.321,19.589-10.312,28.56-17.232c7.72-5.954,22.682-18.217,27.238-22.139 	c4.556-3.921,2.434-10.141,6.969-9.746c4.586,0.399-5.916,7.887,1.333,7.785c3.848-0.054,9.518-2.683,12.15-4.747 	c2.632-2.063,1.914-0.447,2.025,1.652c0.117,2.217-4.258,16.529,3.486,15.707c4.625-0.491,28.002-20.558,30.23-20.971 	c2.227-0.413,9.354,0.261,13.526-3.457c3.896-3.472,9.712-9.521,1.56-9.442c-2.56,0.025-9.849,4.282-11.571,6.655 	c-1.721,2.373-3.116,5.465-1.926,9.537c1.603,5.487,7.32,9.813,17.041,7.026c9.72-2.786,20.25-10.217,33.007-20.741 	c5.293-4.368,16.807-11.662,25.717-12.693c0.61,2.096-11.041,3.735-16.2,11.042c-5.974,8.462-8.191,18.585-3.565,17.429 	c14-3.5,18.499-17.23,20.777-16.191c1.77,1.252-8.839,12.629,1.417,11.454c4.327-0.495,14.407-6.792,21.493-11.95 	c7.088-5.16,14.955-12.299,18.296-15.188c3.344-2.89,13.265-15.789,17.313-22.496c3.347-5.543,6.279-11.249,7.797-17.544 	c1.02-4.219-3.544,0.104-6.177,4.025c-2.632,3.921-6.724,9.216-13.668,29.307c-2.763,7.992-8.418,24.852-2.749,24.646 	c5.671-0.208,11.969-5.613,17.125-8.438c5.753-3.151,15.695-10.843,21.263-14.764c5.569-3.921,7.791-5.681,10.227-5.779 	c2.011-0.082-0.474,1.563-0.677,3.731c-0.202,2.167-2.892,15.005,2.375,15.625c3.441,0.404,9.439-5.321,14.806-9.243 	c5.367-3.921,18.125-12.768,23.694-16.07c4.263-2.527,7.317-5.08,6-2.5c-1.315,2.58-10.734,15.246-4.812,21.562 	c0.938,1,10.454-5.675,16.935-13.518c6.479-7.843,4.577-12.228,2.19-10.232c-6.5,5.438-4.371,12.178-0.625,13.312 	s13.902-3.044,20.688-7.688c4.95-3.389,7.927-7.742,10.812-7.188c4.875,0.938,12.088-1.026,16.329-8.239 	c2.265-3.851,1.615-4.162-2.079-4.261c-3.849-0.103-8.86,1.943-12,7s-1.722,8.667-0.812,10.938 	c0.913,2.271,4.836,6.893,12.938,5.625c7.188-1.125,18.585-6.883,29.216-15.964"></path><path id="creative_dot" stroke-width="5" style="fill-rule: evenodd; clip-rule: evenodd; fill: none; stroke: rgb(255, 255, 255); stroke-miterlimit: 5; stroke-dasharray: 30.7048px; stroke-dashoffset: 0px;" d="M313.758,15.036C312.312,3.438,334.172,0.902,337.71,1.003"></path><path id="creative_t" stroke-width="5" style="fill-rule: evenodd; clip-rule: evenodd; fill: none; stroke: rgb(255, 255, 255); stroke-miterlimit: 5; stroke-dasharray: 52.2735px; stroke-dashoffset: 0px;" d="M251.633,44.547c9.061-0.787,31.036-7.119,48.367-18.734"></path></g>
				</svg>
