<svg xmlns="http://www.w3.org/2000/svg">
	<symbol viewBox="0 0 100% 100%" id="svg-border" preserveAspectRatio="xMinYMin meet"><rect width="100%" height="100%" class="block-title-border-inner"/></symbol>
	<symbol viewBox="0 0 260 260" id="svg-del-border"><rect width="260" height="260" class="block-title-border-inner"/></symbol>	
	<symbol viewBox="0 0 55 52" id="td-text">
		<path style="fill:#FFFFFF;" d="M3.143,41.331h2.146v6.063h2.982v-6.063h2.135v-2.729H3.143V41.331z M19.859,43.318 c0.188-0.403,0.282-0.872,0.282-1.404c0-0.541-0.1-1.017-0.298-1.428c-0.199-0.41-0.47-0.757-0.812-1.039 c-0.342-0.281-0.742-0.492-1.2-0.633c-0.458-0.142-0.946-0.212-1.465-0.212h-5.262v8.804h2.959v-2.182H15.8l2.965,3.243 l2.186-2.066l-1.881-2.056C19.408,44.064,19.671,43.722,19.859,43.318z M16.675,42.422c-0.15,0.118-0.334,0.177-0.552,0.177 h-2.06v-1.37h2.06c0.218,0,0.402,0.06,0.552,0.178c0.15,0.117,0.225,0.287,0.225,0.508S16.825,42.304,16.675,42.422z M21.345,47.406h3.005v-8.804h-3.005V47.406z M33.264,39.579c-0.45-0.438-0.979-0.784-1.587-1.039 c-0.607-0.255-1.253-0.383-1.936-0.383c-0.69,0-1.337,0.128-1.941,0.383c-0.604,0.255-1.131,0.602-1.582,1.039 c-0.45,0.438-0.807,0.949-1.069,1.535c-0.263,0.587-0.394,1.211-0.394,1.873s0.131,1.286,0.394,1.872 c0.262,0.587,0.619,1.099,1.069,1.536c0.45,0.438,0.978,0.784,1.582,1.039c0.604,0.255,1.251,0.383,1.941,0.383 c0.683,0,1.328-0.128,1.936-0.383c0.608-0.255,1.137-0.602,1.587-1.039s0.807-0.949,1.069-1.536 c0.263-0.586,0.394-1.21,0.394-1.872s-0.131-1.286-0.394-1.873C34.07,40.528,33.714,40.017,33.264,39.579z M31.143,43.752 c-0.079,0.183-0.188,0.341-0.326,0.475c-0.139,0.133-0.301,0.239-0.484,0.319s-0.381,0.12-0.591,0.12s-0.407-0.04-0.591-0.12 s-0.346-0.187-0.484-0.319c-0.139-0.134-0.247-0.292-0.326-0.475c-0.078-0.183-0.118-0.377-0.118-0.582s0.04-0.399,0.118-0.582 c0.079-0.183,0.188-0.341,0.326-0.474c0.139-0.134,0.301-0.24,0.484-0.32s0.381-0.12,0.591-0.12s0.407,0.04,0.591,0.12 s0.346,0.187,0.484,0.32c0.139,0.133,0.247,0.291,0.326,0.474c0.078,0.183,0.117,0.377,0.117,0.582S31.221,43.569,31.143,43.752z  M44.727,38.603h-2.839v4.182l2.938,3.752v-2.991l3.141,3.861h2.926V46.53l-2.938-3.846 C48.038,42.794,44.771,38.603,44.727,38.603z M35.082,38.603v1.341l2.938,3.602l3.14,3.861h3.703c0,0-6.932-8.804-6.942-8.804 H35.082z M35.082,40.724v6.683h2.938L38,44.312L35.082,40.724z M47.954,38.603l0.012,3.258l2.926,3.812v-7.07H47.954z"/>
	</symbol>
	<symbol viewBox="0 0 55 32" id="td-l1">
		<path d="M47.266,8.735c-0.033-0.918-0.213-1.125-0.246-1.145c-0.032-0.014-0.066-0.036-0.091-0.02 c-0.116,0.235-0.08,0.517-0.191,0.735c-0.065,0.128-0.233-0.455-0.61-0.386c-0.022,0.004,0.295,0.703-0.039,0.881 c-0.253,0.141-0.504,0.136-0.755-0.015c-0.01,0.04-0.665-0.586-0.573-1.049c0.003-0.548,0.139-0.92,0.535-1.289 c0.183-0.198,0.438-0.219,0.584-0.217c0.398,0.005,0.089,0.779,0.135,0.761c0.35-0.14,0.382-0.749,0.438-0.737 c0.233,0.189,0.327,0.483,0.368,0.516c0.045,0.024,0.133-0.07,0.17-0.11c0.117-0.2,0.031-0.5,0.121-1.212 c0.041-0.331,0.014-0.637-0.083-0.916c-0.09-0.31-0.241-0.487-0.452-0.531c-0.652,0.092-1.283,0.269-1.892,0.529 c-0.609,0.262-1.204,0.573-1.786,0.935c-0.484-0.106-1.066,0.176-1.429,0.471c-0.363,0.295-0.456,0.472-0.77,0.76 c-0.416,0.042-0.823,0.084-1.224,0.129c-0.4,0.044-0.807,0.087-1.221,0.127L38.227,7.09l1.18,1.021l0.068,0.111 c-0.646,0.248-1.222,0.632-1.725,1.15c-0.502,0.519-0.928,1.076-1.275,1.674c-0.23-0.081-2.068,1.181-2.416,1.426 c-0.166,0.118-0.67,0.526-0.863,0.694c-1.633,1.436-1.403,1.334-2.621,2.69c4.525-2.128,8.007-1.928,7.972-1.952 c0,0,0.876-0.153,3.413,0.438c0.276,0.064,0.603,0.11,0.92,0.142c0.299,0.028,0.566-0.71,0.36-0.916 c0.539-0.303,0.938-0.717,1.195-1.242s0.47-1.095,0.636-1.705c0.055-0.247,0.187-0.453,0.396-0.618 c0.21-0.166,0.446-0.27,0.709-0.311c0.134-0.036,0.268-0.031,0.4,0.013c0.133,0.045,0.403-0.004,0.498-0.146 C47.317,9.321,47.276,9.045,47.266,8.735z M42.796,6.359c-0.244,0.11-0.437,0.199-0.562,0.204 c-0.037,0.024-0.104,0.021-0.194,0.002c-0.03-0.007-0.062-0.023-0.056-0.055c0.014-0.062,0.006-0.025,0.043-0.099 c0.156-0.164,0.297-0.259,0.481-0.29c0.191-0.062,0.397,0.008,0.397,0.008C42.928,6.242,42.796,6.359,42.796,6.359z M46.99,6.662 c-0.004,0.007-0.004,0.016-0.009,0.023C47.021,6.628,47.012,6.638,46.99,6.662z"/>
	</symbol>
	<symbol viewBox="0 0 55 32" id="td-l2">
		<path d="M52.135,13.47c-0.608-0.187-1.244-0.266-1.906-0.235c-0.661,0.031-1.312,0.111-1.95,0.239 c-0.056-0.069-0.097-0.121-0.123-0.155c-0.028-0.034-0.071-0.07-0.129-0.108c-0.372-0.134-0.729-0.089-1.021,0.01 c-0.291,0.099-0.545,0.171-0.794,0.336l-0.336,0.17c-0.261-0.184-2.23-1.229-2.245-1.192c-0.026,0.063,0.421,1.866,0.398,1.869 c-2.883,0.423-3.76-1.953-12.167,0.728c-8.561,2.449,10.691,7.774,10.625,7.026l0.062-0.63l0.814-0.618 c0.425,0.077,1.359,0.137,1.716,0s0.717-0.174,1.079-0.358c0.167-0.109,0.317-0.204,0.451-0.285 c0.133-0.082,0.271-0.194,0.411-0.339c0.212-0.232,0.466-0.42,0.763-0.563c0.297-0.145,0.611-0.168,0.945-0.069 c0.058,0.038,0.132,0.077,0.222,0.118c0.089,0.041,0.163,0.081,0.222,0.118c0.086,0.073,0.24,0.089,0.465,0.049 c0.271-0.194,0.454-0.438,0.549-0.731s0.159-0.597,0.193-0.912c-0.107,0.117-0.445,0.493-0.567,0.607 c-0.123,0.114,0.154-0.664-0.271-0.665c0.11,0.33-0.217,0.646-0.323,0.618c-0.107-0.027-0.122,0.009-0.211-0.033 c-0.262-0.186-0.403-0.471-0.424-0.854c-0.039-0.272-0.036-0.372,0.001-0.579c0.096-0.534,0.3-0.715,0.3-0.714 c0.274-0.256,0.432-0.373,0.903-0.39c0.151,0.047,0.25,0.65,0.089,0.905c-0.029,0.047,0.404-0.412,0.468-0.81 c0.018-0.109,0.271,0.08,0.22,0.504c-0.03,0.256,0.007,0.371,0.028,0.415c0.028-0.037,0.646-0.837,0.964-1.434 C52.313,13.989,52.152,13.492,52.135,13.47z M47.658,14.017c-0.076,0.119-0.185,0.195-0.329,0.229 c-0.144,0.032-0.295,0.058-0.452,0.073c-0.096,0.022-0.157,0.022-0.212-0.048c-0.009-0.058,0.015-0.136,0.069-0.183 c0.063-0.055,0.128-0.083,0.231-0.124c0.121-0.04,0.277-0.062,0.398-0.063c0.132-0.001,0.289-0.011,0.302,0.041L47.658,14.017z"/>
	</symbol>
	<symbol viewBox="0 0 55 32" id="td-l3">
		<path d="M34.166,34.733c0.006-0.001,0.002,0,0.003-0.001L34.166,34.733 C34.166,34.733,34.096,34.741,34.166,34.733z M51.02,24.681c-0.817-0.624-1.693-1.121-2.631-1.489l-0.001-0.144 c-0.158-0.346-0.366-0.481-0.651-0.666c-0.314-0.204-0.586-0.3-0.988-0.335c-0.172-0.039-0.355-0.062-0.51-0.061 c-0.155,0.002-0.295-0.027-0.419-0.089l-1.719-1.787l0.007,1.514c-7.376-4.214-7.501-8.141-12.359-6.449 c-1.799,0.845-3.685,1.253-5.656,1.228c-1.964-0.025-3.893-0.173-5.785-0.445c-0.325-0.055-0.657-0.118-0.996-0.188 c-0.339-0.069-0.685-0.086-1.037-0.049c-0.704,0.106-1.377,0.318-2.018,0.638c-0.641,0.319-1.251,0.697-1.831,1.137 c-0.55,0.408-1.027,0.883-1.43,1.426c-0.403,0.541-0.849,1.028-1.339,1.464c-0.834,0.745-1.74,1.421-2.717,2.028 c-0.975,0.606-2.038,0.841-3.186,0.703C5.266,23,4.81,22.875,4.421,22.546c-0.388-0.328-0.788-0.781-0.991-1.263 c-0.39-1.042-0.139-2.232,0.438-2.764c1.749-1.611,3.438,0.505,3.362,0.426c-0.042-0.021-0.136,0.259-0.142,0.373 c-0.026,0.461,0.381,0.721,0.42,1.28c0.019,0.271,0.278-0.145,0.363-0.626c0.03-0.168,0.078,0.317-0.144,0.939 c-0.024,0.068,1.206-0.854,0.454-2.001c-0.102-0.155-0.364-0.156-0.38-0.187c-1.274-2.4-3.646-1.629-4.417-0.89 c-0.45,0.424-1.069,1.118-1.125,2.461c0.006,0.786,0.362,1.868,0.81,2.512c0.447,0.646,1.015,1.116,1.703,1.411 c1.207,0.411,2.426,0.443,3.662,0.095c1.237-0.35,2.346-0.927,3.325-1.732l0.043,0.045c-0.083,0.459-0.218,0.896-0.403,1.311 c-0.186,0.414-0.436,0.79-0.751,1.129c-0.43,0.555-0.976,0.91-1.639,1.068c-0.145-0.028-0.296-0.02-0.454,0.027 s-0.31,0.041-0.454-0.019c-0.029,0.031-0.042,0.076-0.042,0.137c0,0.031-0.015,0.077-0.042,0.138 c-0.34,0.703-0.695,1.398-1.062,2.084c-0.368,0.687-0.779,1.335-1.233,1.944c-0.142,0.183-0.298,0.351-0.469,0.503 C5.122,32.163,5.26,33.3,5.669,34.359c0.058,0.062,0.094,0.145,0.11,0.25c0.015,0.106,0.08,0.177,0.194,0.115 c-0.005-0.003,2.971,0.003,2.976-0.003c0,0.005-0.016-0.2-0.045-0.23c-0.002-0.273-0.062-0.486-0.178-0.638 c-0.204-0.243-0.443-0.41-0.717-0.501c-0.275-0.09-0.555-0.119-0.842-0.089c-0.115-0.061-0.224-0.121-0.325-0.182 s-0.181-0.166-0.239-0.317c-0.088-0.243-0.111-0.501-0.07-0.774c0.041-0.273,0.118-0.533,0.23-0.776 c0.197-0.426,0.438-0.837,0.723-1.234c0.284-0.396,0.627-0.748,1.028-1.056c0.344-0.246,0.703-0.477,1.076-0.693 c0.374-0.216,0.763-0.311,1.168-0.283c0.435,0.027,0.847-0.029,1.237-0.17c0.391-0.141,0.774-0.289,1.151-0.445 c0.087-0.062,0.166-0.116,0.238-0.163c0.072-0.046,0.152-0.085,0.239-0.116c0.754-0.436,1.464-0.993,2.131-1.674 c0.145-0.124,0.253-0.248,0.326-0.371c0.072-0.124,0.181-0.232,0.327-0.326c0.057-0.153,0.13-0.269,0.217-0.347 c0.087-0.078,0.159-0.193,0.217-0.348c0.709,0.698,1.068,1.615,1.077,2.751c-0.027,0.37-0.12,0.731-0.278,1.085 c-0.159,0.355-0.413,0.61-0.763,0.766c-0.059,0.062-0.051,0.116,0.023,0.161c0.073,0.046,0.125,0.099,0.155,0.16 c0.236,0.213,0.458,0.465,0.666,0.755c0.207,0.291,0.4,0.574,0.579,0.849c0.09,0.246,0.209,0.469,0.358,0.668 c0.148,0.199,0.252,0.421,0.314,0.667c0.059,0.03,0.081,0.076,0.067,0.138c-0.015,0.062,0.008,0.092,0.067,0.092 c0,0.062,0.016,0.101,0.045,0.115c0.029,0.016,0.029,0.039,0,0.069c0.059,0.03,0.081,0.068,0.067,0.115 c-0.015,0.046,0.008,0.085,0.067,0.114c0.03,0.093,0.075,0.2,0.135,0.323c0.06,0.123,0.119,0.261,0.18,0.415 c0.413,0.091,0.775,0.274,1.087,0.551s0.617,0.583,0.915,0.921l3.067-0.004l0-0.093c0.057-0.277-0.049-0.524-0.318-0.74 c-0.568-0.491-1.266-0.613-2.093-0.364c-0.685-0.553-1.266-1.197-1.743-1.933s-0.852-1.518-1.123-2.345 c0.409-0.464,0.795-0.942,1.16-1.438c0.365-0.494,0.648-1.051,0.851-1.668c0.144-0.433,0.244-0.903,0.299-1.411 c0.055-0.509-0.067-0.946-0.365-1.312c1.125,0.232,2.181,0.613,3.165,1.142c0.986,0.53,1.9,1.239,2.744,2.128 c0.694,0.861,1.248,1.794,1.66,2.798c0.413,1.005,0.594,2.098,0.543,3.275c0.302,0.248,0.597,0.503,0.885,0.766 c0.287,0.264,0.508,0.565,0.66,0.906c0.061,0.062,0.084,0.125,0.07,0.187c-0.016,0.062,0.023,0.109,0.113,0.14l2.988-0.004 c-0.001-0.01,0.006-0.166-0.002-0.187c0-0.062-0.016-0.117-0.047-0.164c-0.03-0.046-0.061-0.101-0.092-0.163 c-0.245-0.403-0.572-0.645-0.98-0.722c-0.408-0.076-0.809-0.083-1.199-0.021c-0.213-0.186-0.395-0.402-0.547-0.65 c-0.246-0.527-0.393-1.117-0.443-1.769c-0.05-0.652-0.003-1.288,0.144-1.911c0.543,0.184,1.079,0.305,1.607,0.363 c0.528,0.06,1.08,0.009,1.653-0.15c0.335,0.185,0.654,0.386,0.96,0.602c0.305,0.217,0.596,0.496,0.872,0.838 c0.245,0.311,0.476,0.638,0.691,0.979c0.215,0.344,0.385,0.585,0.51,0.928c0.061,0.031,0.092,0.078,0.092,0.141 c0,0.031,0.016,0.078,0.047,0.141c0.428,0.124,0.849,0.325,1.263,0.606c0.415,0.28,0.746,0.68,0.994,1.086 c1.711-0.006,1.087-0.005,1.7-0.006c0.645-0.001-0.008,0.004,1.752,0.002c-0.001-0.221-0.049-0.418-0.143-0.575 c-0.062-0.03-0.101-0.062-0.116-0.094c-0.017-0.031-0.039-0.062-0.07-0.094c-0.278-0.282-0.619-0.463-1.019-0.54 c-0.399-0.078-0.783-0.054-1.149,0.073c-0.216-0.125-0.432-0.266-0.646-0.422c-0.216-0.156-0.401-0.328-0.555-0.516 c-0.586-0.656-1.095-1.25-1.526-1.983c-0.434-0.732-0.82-1.474-1.16-2.223c0.697-0.349,1.443-0.511,2.237-0.485 c0.795,0.025,1.562,0.113,2.298,0.265c0.523,0.216,1.078,0.33,1.663,0.341c0.584,0.013,1.17-0.063,1.755-0.226 c0.246-0.127,0.556-0.161,0.927-0.102c0.402,0.092,0.684,0.343,0.842,0.752c0.095,0.22,0.436,0.315,0.714,0.25 c0.31-0.065,0.427-0.226,0.657-0.449c0.231-0.223,0.424-0.461,0.577-0.716c-0.001,0.001,0.108-0.285,0.045-0.284 c-0.206-0.049-0.198,0.279-0.964,0.439c-0.15,0.032,0.351-0.453,0.125-0.795c-0.005-0.008-0.188,0.623-0.79,0.567 c-0.346-0.347-0.378-0.792,0.08-1.541c0.459-0.75,0.963-0.599,1.464-0.614c0.305,0.081-0.235,0.806-0.144,0.801 c0.443-0.025,0.529-0.596,0.589-0.521c0.095,0.126,0.143,0.284,0.144,0.474c0.001,0.158-0.029,0.285-0.09,0.381 c-0.062,0.063-0.046,0.095,0.047,0.094c0.497-0.163,0.947-0.428,1.35-0.796c0.402-0.367,0.665-0.821,0.786-1.361L51.02,24.681z  M47.423,23.371c-0.131-0.022-0.267-0.057-0.359-0.101c-0.057-0.026-0.172-0.038-0.249-0.085c-0.078-0.046-0.148-0.135-0.15-0.2 c0.017-0.062,0.123-0.109,0.217-0.103c0.133,0.009,0.274,0.067,0.421,0.095l0.054,0.025c0.1,0.044,0.136,0.034,0.23,0.159 c0.039,0.046,0.08,0.097,0.08,0.159C47.643,23.375,47.558,23.395,47.423,23.371z"/>
	</symbol>	
	<symbol viewBox="0 0 18.945 22.861" id="map-icon">
	<path style="fill-rule:evenodd;clip-rule:evenodd;" d="M9.083,1.597c-3.946,0-7.449,3.577-7.449,7.522 c0,0.515,1.419,0.508,1.419,0.06c0-3.284,2.839-6.261,6.037-6.261c2.66,0,6.097,2.333,6.097,6.261 c0,3.499-4.453,7.795-6.037,9.422c-1.456-1.282-4.306-4.179-5.523-7.001c-0.15-0.347-1.433,0.113-1.198,0.619 c1.547,3.33,4.965,6.709,6.728,8.22c1.954-1.954,7.449-7.116,7.449-11.32C16.605,4.399,12.364,1.597,9.083,1.597z M12.02,9.068 c0-1.599-1.297-2.896-2.896-2.896c-1.599,0-2.896,1.296-2.896,2.896s1.296,2.895,2.896,2.895 C10.723,11.963,12.02,10.667,12.02,9.068z M7.434,9.068c0-0.934,0.757-1.691,1.691-1.691c0.934,0,1.691,0.757,1.691,1.691 c0,0.934-0.757,1.691-1.691,1.691C8.191,10.759,7.434,10.001,7.434,9.068z"/>
	</symbol>
	<symbol viewBox="0 0 132 132" id="inquire-icon">
	<path style="fill-rule:evenodd;clip-rule:evenodd;" d="M68.995,34.688c-21.21,9.301-44.158,19.354-46.933,20.478  c-5.104,2.066-2.856,3.524-0.912,4.739c1.945,1.215,21.309,11.326,27.669,15.534c5.48-5.676,50.692-50.593,56.956-56.856  c-1.863,0.793-12.188,5.32-24.998,10.938c-0.865,0.379-1.965-2.634-1.145-2.994c12.741-5.581,22.455-9.836,22.455-9.836  c5.912-3.229,8.838-1.11,8.838-1.11c2.539,1.183,0.404,7.029,0.404,7.029l-38.322,86.728c-1.26,4.101-6,1-6,1L47.765,78.609  c-0.909-1.327-30.676-18-30.676-18c-6.43-4.981,3-8,3-8s25.233-11.053,47.705-20.896C68.501,31.403,69.748,34.357,68.995,34.688z   M75.352,31.899c-0.391,0.171-0.782,0.343-1.176,0.516c-0.97,0.425-2.143-2.56-1.096-3.019c0.408-0.179,0.814-0.357,1.219-0.534  C75.256,28.443,76.293,31.487,75.352,31.899z M51.171,77.593c4.208,6.361,15.166,26.307,16.381,28.251  c1.215,1.945,2.674,4.193,4.739-0.911s34.259-79.717,36.511-85.002C102.539,26.194,56.847,72.112,51.171,77.593z"/>
	</symbol>	
	<symbol viewBox="0 0 132 132" id="mobile-icon">
		<path style="fill-rule:evenodd;clip-rule:evenodd;;" d="M74.586,29.232c0-0.5-0.404-0.905-0.904-0.905H58.108 c-0.5,0-0.905,0.405-0.905,0.905c0,0.5,0.405,0.905,0.905,0.905h15.574C74.182,30.137,74.586,29.732,74.586,29.232z M94.109,101.932c0,4.971-4.029,9-9,9H46.851c-4.971,0-9-4.029-9-9c0,0,0-36.716,0-58.088l-2.99,0.001c0,21.251,0,58.012,0,58.012 c0,6.627,5.373,12,12,12h38.096c6.627,0,12-5.373,12-12c0,0,0-12.426,0-26.905h-2.848 C94.109,89.533,94.109,101.932,94.109,101.932z M94.109,72.203h2.848v-2.218h-2.848V72.203z M84.957,17.104H46.861 c-6.627,0-12,5.373-12,12c0,0,0,4.312,0,10.837l2.99-0.002c0-6.725,0-11.059,0-11.059c0-4.97,4.029-9,9-9h38.258 c4.971,0,9,4.03,9,9c0,0,0,19.414,0,38.224h2.848c0-18.713,0-38,0-38C96.957,22.477,91.584,17.104,84.957,17.104z M59.521,98.94 c0,3.52,2.854,6.373,6.374,6.373s6.374-2.854,6.374-6.373c0-3.521-2.854-6.373-6.374-6.373S59.521,95.42,59.521,98.94z M70.352,98.939c0,2.46-1.994,4.454-4.454,4.454s-4.455-1.994-4.455-4.454s1.995-4.455,4.455-4.455S70.352,96.479,70.352,98.939z"/>
	</symbol>	
	<symbol viewBox="0 0 132 132" id="chat-icon">
		<path style="fill-rule:evenodd;clip-rule:evenodd;" d="M107.991,35.22c4.337,6.766,6.825,14.655,6.825,23.079  c0,10.479-3.851,20.131-10.32,27.822c-0.736,0.875-2.974-0.698-2.272-1.53c6.003-7.131,9.572-16.081,9.572-25.855  c0-8.04-2.414-15.562-6.612-21.983C104.499,35.705,107.25,34.063,107.991,35.22z M29.959,31.12  c-6.864,7.446-11.005,17.086-11.005,27.615c0,12.596,5.253,24.327,14.679,32.056c1.045,2.669,0.377,11.7,0.454,20.277  c7.711-4.065,14.227-8.335,19.381-11.174c3.849,0.807,7.855,1.218,11.907,1.218c12.4,0,23.665-4.396,31.991-11.604  c0.923-0.799,3.141,0.82,2.252,1.605c-8.885,7.852-20.951,12.678-34.243,12.678c-3.669,0-7.31-0.331-10.845-0.976  c-4.911,2.888-15.798,8.862-22.962,12.645c-0.23-4.502-0.339-15.128-0.789-23.464c-9.648-8.303-14.846-20.584-14.846-33.698  c0-11.182,4.384-21.421,11.656-29.342C28.42,28.052,30.749,30.264,29.959,31.12z M34.614,26.745  c0.855-0.697,1.739-1.366,2.649-2.004c0.968-0.679-0.943-3.274-1.938-2.573c-0.985,0.695-1.942,1.424-2.867,2.184  C31.68,24.992,33.865,27.355,34.614,26.745z M42.87,21.368c6.666-3.406,14.339-5.347,22.505-5.347c3.461,0,6.834,0.349,10.08,1.01  c0.822,0.167,1.182-3.049,0.29-3.224c-3.344-0.657-6.813-1.002-10.37-1.002c-8.695,0-16.867,2.065-23.966,5.692  C40.382,19.022,41.979,21.823,42.87,21.368z M80.457,18.327c4.61,1.457,8.893,3.562,12.719,6.199  c1.074,0.741,2.683-2.081,1.308-3.004c-4.029-2.705-8.52-4.862-13.342-6.354C80.236,14.887,79.614,18.061,80.457,18.327z   M98.321,28.645c0.561,0.52,1.106,1.052,1.638,1.598c1.073,1.103,3.533-0.964,2.37-2.168c-0.505-0.522-1.023-1.034-1.554-1.535  C100.022,25.83,97.663,28.035,98.321,28.645z"/>
	</symbol>	
	<symbol viewBox="0 0 430.113 430.114" id="fb-logo">
		<path class="facebook-svg" d="M158.081,83.3c0,10.839,0,59.218,0,59.218h-43.385v72.412h43.385v215.183h89.122V214.936h59.805   c0,0,5.601-34.721,8.316-72.685c-7.784,0-67.784,0-67.784,0s0-42.127,0-49.511c0-7.4,9.717-17.354,19.321-17.354   c9.586,0,29.818,0,48.557,0c0-9.859,0-43.924,0-75.385c-25.016,0-53.476,0-66.021,0C155.878-0.004,158.081,72.48,158.081,83.3z"/>	
	</symbol>
	<symbol viewBox="0 0 430.117 430.117" id="linkedin-logo">
		<path class="linkedin-svg" d="M430.117,261.543V420.56h-92.188V272.193c0-37.271-13.334-62.707-46.703-62.707   c-25.473,0-40.632,17.142-47.301,33.724c-2.432,5.928-3.058,14.179-3.058,22.477V420.56h-92.219c0,0,1.242-251.285,0-277.32h92.21   v39.309c-0.187,0.294-0.43,0.611-0.606,0.896h0.606v-0.896c12.251-18.869,34.13-45.824,83.102-45.824   C384.633,136.724,430.117,176.361,430.117,261.543z M52.183,9.558C20.635,9.558,0,30.251,0,57.463   c0,26.619,20.038,47.94,50.959,47.94h0.616c32.159,0,52.159-21.317,52.159-47.94C103.128,30.251,83.734,9.558,52.183,9.558z    M5.477,420.56h92.184v-277.32H5.477V420.56z"/>
	</symbol>
	<symbol viewBox="0 0 486.392 486.392" id="instagram-logo">
		<path class="instagram-svg" d="M464.413,0H21.948C9.849,0,0,9.819,0,21.918v442.555c0,12.069,9.849,21.918,21.948,21.918h442.464    c12.129,0,21.979-9.849,21.979-21.918V21.918C486.392,9.819,476.542,0,464.413,0z M243.196,158.32    c46.876,0,84.875,37.999,84.875,84.875s-37.999,84.875-84.875,84.875s-84.875-37.999-84.875-84.875S196.32,158.32,243.196,158.32z     M425.593,425.593H60.799V212.796h40.036c-2.098,9.819-3.314,19.972-3.314,30.399c0,80.346,65.359,145.674,145.674,145.674    c80.346,0,145.674-65.328,145.674-145.674c0-10.427-1.216-20.58-3.283-30.399h40.006V425.593z M425.593,151.997h-91.198V60.799    h91.198V151.997z"/>
	</symbol>
	<symbol viewBox="0 0 486.392 486.392" id="twitter-logo">
		<path class="twitter-svg" d="M381.384,198.639c24.157-1.993,40.543-12.975,46.849-27.876   c-8.714,5.353-35.764,11.189-50.703,5.631c-0.732-3.51-1.55-6.844-2.353-9.854c-11.383-41.798-50.357-75.472-91.194-71.404   c3.304-1.334,6.655-2.576,9.996-3.691c4.495-1.61,30.868-5.901,26.715-15.21c-3.5-8.188-35.722,6.188-41.789,8.067   c8.009-3.012,21.254-8.193,22.673-17.396c-12.27,1.683-24.315,7.484-33.622,15.919c3.36-3.617,5.909-8.025,6.45-12.769   C241.68,90.963,222.563,133.113,207.092,174c-12.148-11.773-22.915-21.044-32.574-26.192   c-27.097-14.531-59.496-29.692-110.355-48.572c-1.561,16.827,8.322,39.201,36.8,54.08c-6.17-0.826-17.453,1.017-26.477,3.178   c3.675,19.277,15.677,35.159,48.169,42.839c-14.849,0.98-22.523,4.359-29.478,11.642c6.763,13.407,23.266,29.186,52.953,25.947   c-33.006,14.226-13.458,40.571,13.399,36.642C113.713,320.887,41.479,317.409,0,277.828   c108.299,147.572,343.716,87.274,378.799-54.866c26.285,0.224,41.737-9.105,51.318-19.39   C414.973,206.142,393.023,203.486,381.384,198.639z"/>
	</symbol>
	<symbol viewBox="0 0 80 35" id="nav-arrow">	
		<path style="fill-rule:evenodd;clip-rule:evenodd;fill:#b1ada5;" d="M17.5,16h41l-6-6c0,0-0.822-1.177,0-2s2,0,2,0l8,9l-8,9  c0,0-1.168,0.832-2,0s0-2,0-2l6-6h-41V16z"/> 
	</symbol>		
	<symbol viewBox="0 0 24 24" id="nav-all">
		<path d="M1,1v6h6V1H1z M9,1v6h6V1H9z M17,1v6h6V1H17z M1,9v6h6V9H1z M9,9v6h6V9H9z M17,9v6h6V9 H17z M1,17v6h6v-6H1z M9,17v6h6v-6H9z M17,17v6h6v-6H17z"/>
	</symbol>
	<symbol viewBox="0 0 45 24" id="top-arrow">
		<path id="Arrow_Forward" style="fill:#b1ada5;" d="M44.707,12c0-0.267-0.109-0.522-0.293-0.714l-9.898-9.999  c-0.392-0.395-1.024-0.394-1.414,0c-0.392,0.394-0.392,1.034,0,1.428l8.192,8.275h-40c-0.552,0-1,0.452-1,1.01s0.448,1.01,1,1.01  h39.999l-8.191,8.275c-0.392,0.393-0.391,1.033,0,1.428s1.023,0.395,1.414,0l9.898-10C44.602,12.525,44.704,12.264,44.707,12z"/>
	</symbol>	
	<symbol viewBox="0 0 120 120" id="play-icon">
		<path d="M21.579,15C-3.082,35.782-6.226,72.62,14.555,97.28       c20.782,24.661,57.62,27.806,82.28,7.024c24.66-20.782,27.806-57.62,7.023-82.28C83.077-2.637,46.239-5.781,21.579,15z M75.637,59.877c0,0-20.782,20.978-21.035,21.051l-0.032-41.63C54.367,39.031,75.637,59.877,75.637,59.877z"/>
	</symbol>
	<symbol viewBox="0 0 45 24" id="blog-arrow">
		<path style="fill:#f9edd4;" d="M44.707,12c0-0.267-0.109-0.522-0.293-0.714l-9.898-9.999 c-0.392-0.395-1.024-0.394-1.414,0c-0.392,0.394-0.392,1.034,0,1.428l8.192,8.275h-40c-0.552,0-1,0.452-1,1.01s0.448,1.01,1,1.01 h39.999l-8.191,8.275c-0.392,0.393-0.391,1.033,0,1.428s1.023,0.395,1.414,0l9.898-10C44.602,12.525,44.704,12.264,44.707,12z"/>
	</symbol>
<div xmlns="" id="divScriptsUsed" style="display: none"/><script xmlns="" id="globalVarsDetection" src="moz-extension://4ce8c5be-f761-4ca2-b66b-42f9635c7424/js/wrs_env.js"/></svg>