<?xml version="1.0" encoding="utf-8"?>
<!-- Generator: Adobe Illustrator 19.2.1, SVG Export Plug-In . SVG Version: 6.00 Build 0)  -->
<svg version="1.1" id="arrow" xmlns="http://www.w3.org/2000/svg" xlink="http://www.w3.org/1999/xlink" x="0px" y="0px" width="45px" height="26px" viewBox="0 0 45 24" style="enable-background:new 0 0 45 24;" xml:space="preserve" title="">
    <path id="Arrow_Forward" d="M44.707,12c0-0.267-0.109-0.522-0.293-0.714l-9.898-9.999 c-0.392-0.395-1.024-0.394-1.414,0c-0.392,0.394-0.392,1.034,0,1.428l8.192,8.275h-40c-0.552,0-1,0.452-1,1.01s0.448,1.01,1,1.01 h39.999l-8.191,8.275c-0.392,0.393-0.391,1.033,0,1.428s1.023,0.395,1.414,0l9.898-10C44.602,12.525,44.704,12.264,44.707,12z"></path>
</svg>